<svg xmlns="http://www.w3.org/2000/svg" width="202.295" height="16.22" viewBox="0 0 202.295 16.22">
  <defs>
    <style>
      .cls-1 {
        fill: #676c72;
      }

      .cls-2 {
        fill: #ea4335;
      }

      .cls-3 {
        fill: #4285f4;
      }

      .cls-4 {
        fill: #fbbc04;
      }

      .cls-5 {
        fill: #0f9d58;
      }
    </style>
  </defs>
  <g id="Group-2" transform="translate(0 0)">
    <path id="DeveloperStudentClubs" class="cls-1" d="M42.24,12.98a5.841,5.841,0,0,0,2.88-.683,4.7,4.7,0,0,0,1.89-1.9,5.752,5.752,0,0,0,.66-2.79,5.752,5.752,0,0,0-.66-2.79,4.7,4.7,0,0,0-1.89-1.9,5.841,5.841,0,0,0-2.88-.682H39V12.98Zm0-1.215H40.26V3.455h1.98a4.133,4.133,0,0,1,3.023,1.1A4.092,4.092,0,0,1,46.38,7.61a4.092,4.092,0,0,1-1.117,3.06,4.133,4.133,0,0,1-3.023,1.1ZM52.37,13.22a3.727,3.727,0,0,0,2.047-.54,3.853,3.853,0,0,0,1.343-1.47h0l-1.08-.525a2.489,2.489,0,0,1-2.265,1.38,2.581,2.581,0,0,1-1.207-.3,2.442,2.442,0,0,1-.953-.9,3.025,3.025,0,0,1-.42-1.47H55.88a1.493,1.493,0,0,0,.045-.39,4.455,4.455,0,0,0-.443-2.025,3.32,3.32,0,0,0-1.267-1.387,3.676,3.676,0,0,0-1.95-.5,3.456,3.456,0,0,0-1.95.555,3.694,3.694,0,0,0-1.3,1.485,4.558,4.558,0,0,0-.458,2.04,4.371,4.371,0,0,0,.488,2.078A3.64,3.64,0,0,0,50.4,12.695,3.728,3.728,0,0,0,52.37,13.22Zm2.205-4.875H49.91a2.774,2.774,0,0,1,.818-1.522,2.155,2.155,0,0,1,1.522-.578,2.374,2.374,0,0,1,1.3.33,2.05,2.05,0,0,1,.757.81,2.483,2.483,0,0,1,.27.96ZM60.7,12.98l3.12-7.65H62.485l-2.4,6.15h-.03l-2.37-6.15H56.32l3.09,7.65Zm7.25.24A3.727,3.727,0,0,0,70,12.68a3.845,3.845,0,0,0,1.343-1.47h0l-1.08-.525A2.489,2.489,0,0,1,68,12.065a2.59,2.59,0,0,1-1.208-.3,2.446,2.446,0,0,1-.952-.9,3.025,3.025,0,0,1-.42-1.47H71.46a1.493,1.493,0,0,0,.045-.39,4.481,4.481,0,0,0-.442-2.025,3.329,3.329,0,0,0-1.268-1.387,3.676,3.676,0,0,0-1.95-.5,3.456,3.456,0,0,0-1.95.555A3.694,3.694,0,0,0,64.6,7.13a4.558,4.558,0,0,0-.458,2.04,4.371,4.371,0,0,0,.488,2.078,3.633,3.633,0,0,0,1.357,1.447A3.728,3.728,0,0,0,67.95,13.22Zm2.205-4.875H65.49a2.774,2.774,0,0,1,.818-1.522,2.155,2.155,0,0,1,1.522-.578,2.371,2.371,0,0,1,1.3.33,2.05,2.05,0,0,1,.757.81,2.483,2.483,0,0,1,.27.96Zm4.01,4.635V2.24H72.89V12.98Zm5.24.24a3.859,3.859,0,0,0,2.025-.54,3.775,3.775,0,0,0,1.4-1.47,4.242,4.242,0,0,0,.5-2.055,4.242,4.242,0,0,0-.5-2.055,3.775,3.775,0,0,0-1.4-1.47,4.067,4.067,0,0,0-4.05,0,3.775,3.775,0,0,0-1.4,1.47,4.253,4.253,0,0,0-.5,2.055,4.253,4.253,0,0,0,.5,2.055,3.775,3.775,0,0,0,1.4,1.47A3.859,3.859,0,0,0,79.4,13.22Zm0-1.155A2.606,2.606,0,0,1,77.1,10.7a3.114,3.114,0,0,1-.368-1.545A3.114,3.114,0,0,1,77.1,7.61,2.589,2.589,0,0,1,78.085,6.6a2.621,2.621,0,0,1,1.32-.352A2.58,2.58,0,0,1,81.692,7.61a3.114,3.114,0,0,1,.368,1.545,3.114,3.114,0,0,1-.368,1.545,2.6,2.6,0,0,1-.975,1.012A2.557,2.557,0,0,1,79.4,12.065ZM85.86,16.22V12.9l-.06-1.05h.06a2.816,2.816,0,0,0,1.042.968,3.124,3.124,0,0,0,1.568.4,3.439,3.439,0,0,0,1.86-.525,3.659,3.659,0,0,0,1.32-1.447,4.471,4.471,0,0,0,.48-2.093,4.478,4.478,0,0,0-.48-2.085,3.648,3.648,0,0,0-1.32-1.455,3.439,3.439,0,0,0-1.86-.525,3.1,3.1,0,0,0-1.568.4,2.76,2.76,0,0,0-1.042.982H85.8V5.33H84.585V16.22Zm2.46-4.155a2.336,2.336,0,0,1-1.245-.36,2.557,2.557,0,0,1-.93-1.02,3.256,3.256,0,0,1-.345-1.53,3.256,3.256,0,0,1,.345-1.53,2.557,2.557,0,0,1,.93-1.02,2.333,2.333,0,0,1,2.49,0A2.6,2.6,0,0,1,90.5,7.633a3.209,3.209,0,0,1,.352,1.522,3.206,3.206,0,0,1-.352,1.522,2.594,2.594,0,0,1-.938,1.028A2.336,2.336,0,0,1,88.32,12.065Zm8.6,1.155a3.73,3.73,0,0,0,2.047-.54,3.845,3.845,0,0,0,1.343-1.47h0l-1.08-.525a2.489,2.489,0,0,1-2.265,1.38,2.59,2.59,0,0,1-1.208-.3,2.446,2.446,0,0,1-.952-.9,3.025,3.025,0,0,1-.42-1.47h6.045a1.493,1.493,0,0,0,.045-.39,4.481,4.481,0,0,0-.442-2.025,3.329,3.329,0,0,0-1.268-1.387,3.676,3.676,0,0,0-1.95-.5,3.456,3.456,0,0,0-1.95.555,3.7,3.7,0,0,0-1.3,1.485,4.558,4.558,0,0,0-.457,2.04,4.371,4.371,0,0,0,.488,2.078,3.64,3.64,0,0,0,1.357,1.447A3.728,3.728,0,0,0,96.92,13.22Zm2.205-4.875H94.46a2.779,2.779,0,0,1,.817-1.522A2.158,2.158,0,0,1,96.8,6.245a2.371,2.371,0,0,1,1.3.33,2.057,2.057,0,0,1,.757.81,2.483,2.483,0,0,1,.27.96Zm4.01,4.635V8.7a2.46,2.46,0,0,1,.277-1.148,2.276,2.276,0,0,1,.743-.847,1.781,1.781,0,0,1,1.02-.315,2.382,2.382,0,0,1,1.08.24h0V5.255a2.422,2.422,0,0,0-.9-.15,2.468,2.468,0,0,0-1.35.412,2.056,2.056,0,0,0-.87,1.043h-.06V5.33H101.86v7.65Zm10.435.24a4.375,4.375,0,0,0,1.665-.33,3.131,3.131,0,0,0,1.342-1.035,2.8,2.8,0,0,0,.533-1.74,2.682,2.682,0,0,0-.765-2.018,5.914,5.914,0,0,0-2.13-1.237h0l-.7-.24a5.1,5.1,0,0,1-1.5-.742,1.259,1.259,0,0,1-.5-1.028,1.435,1.435,0,0,1,.585-1.17,2.2,2.2,0,0,1,1.41-.465,2.1,2.1,0,0,1,1.4.45A2,2,0,0,1,115.6,4.67h0l1.2-.51a3.124,3.124,0,0,0-.578-.975,3.368,3.368,0,0,0-1.1-.84,3.891,3.891,0,0,0-3.3.045,3,3,0,0,0-1.17,1.042,2.573,2.573,0,0,0-.42,1.418,2.358,2.358,0,0,0,.72,1.83,5.379,5.379,0,0,0,1.86,1.065h0l.675.24a5.316,5.316,0,0,1,1.792.907,1.586,1.586,0,0,1,.548,1.238,1.645,1.645,0,0,1-.645,1.372,2.485,2.485,0,0,1-1.575.5,2.357,2.357,0,0,1-1.62-.615,3.132,3.132,0,0,1-.945-1.575h0l-1.215.5a3.872,3.872,0,0,0,3.75,2.91Zm7.625-.12a3.2,3.2,0,0,0,.592-.045,1.964,1.964,0,0,0,.458-.15h0V11.66a1.555,1.555,0,0,1-.84.255,1.031,1.031,0,0,1-.825-.33,1.479,1.479,0,0,1-.24-.93h0V6.485h1.86V5.33h-1.86V3.17h-1.275V5.33H117.73V6.485h1.335V10.97a2.469,2.469,0,0,0,.15.915,1.849,1.849,0,0,0,.45.66,1.97,1.97,0,0,0,.667.4A2.43,2.43,0,0,0,121.195,13.1Zm5.225.12a2.941,2.941,0,0,0,1.47-.39,2.524,2.524,0,0,0,1.005-.96h.06v1.11h1.215V5.33H128.9V9.65a2.57,2.57,0,0,1-.278,1.17,2.342,2.342,0,0,1-.779.9,1.98,1.98,0,0,1-1.148.345,1.774,1.774,0,0,1-1.335-.51,2.235,2.235,0,0,1-.5-1.605h0V5.33h-1.275v4.815a3.271,3.271,0,0,0,.727,2.265A2.689,2.689,0,0,0,126.42,13.22Zm8.705,0a3.108,3.108,0,0,0,1.575-.4,2.957,2.957,0,0,0,1.05-.968h.06V12.98h1.215V2.24H137.75V5.405l.06,1.065h-.06a2.893,2.893,0,0,0-1.05-.982,3.088,3.088,0,0,0-1.575-.4,3.4,3.4,0,0,0-1.852.525A3.661,3.661,0,0,0,131.96,7.07a4.478,4.478,0,0,0-.48,2.085,4.471,4.471,0,0,0,.48,2.093,3.672,3.672,0,0,0,1.313,1.447A3.4,3.4,0,0,0,135.125,13.22Zm.15-1.155a2.336,2.336,0,0,1-1.245-.36,2.594,2.594,0,0,1-.938-1.028,3.206,3.206,0,0,1-.352-1.522,3.209,3.209,0,0,1,.352-1.522,2.6,2.6,0,0,1,.938-1.028,2.345,2.345,0,0,1,2.5,0,2.625,2.625,0,0,1,.931,1.02,3.2,3.2,0,0,1,.352,1.53,3.2,3.2,0,0,1-.352,1.53,2.625,2.625,0,0,1-.931,1.02A2.319,2.319,0,0,1,135.275,12.065Zm8.87,1.155a3.733,3.733,0,0,0,2.048-.54,3.85,3.85,0,0,0,1.342-1.47h0l-1.08-.525a2.489,2.489,0,0,1-2.265,1.38,2.588,2.588,0,0,1-1.208-.3,2.453,2.453,0,0,1-.952-.9,3.025,3.025,0,0,1-.42-1.47h6.045a1.493,1.493,0,0,0,.045-.39,4.468,4.468,0,0,0-.442-2.025,3.336,3.336,0,0,0-1.268-1.387,3.676,3.676,0,0,0-1.95-.5,3.456,3.456,0,0,0-1.95.555,3.711,3.711,0,0,0-1.3,1.485,4.571,4.571,0,0,0-.457,2.04,4.382,4.382,0,0,0,.487,2.078,3.65,3.65,0,0,0,1.358,1.447A3.728,3.728,0,0,0,144.145,13.22Zm2.205-4.875h-4.665a2.767,2.767,0,0,1,.818-1.522,2.154,2.154,0,0,1,1.522-.578,2.368,2.368,0,0,1,1.3.33,2.052,2.052,0,0,1,.758.81,2.483,2.483,0,0,1,.27.96Zm4.01,4.635v-4.3a2.691,2.691,0,0,1,.27-1.178,2.316,2.316,0,0,1,.757-.907,1.864,1.864,0,0,1,1.1-.345,1.954,1.954,0,0,1,1.395.48,2.039,2.039,0,0,1,.51,1.545h0v4.71h1.275v-4.9a3.129,3.129,0,0,0-.727-2.183,2.7,2.7,0,0,0-2.108-.8,2.889,2.889,0,0,0-1.47.4,2.572,2.572,0,0,0-1.005.967h-.06V5.33h-1.215v7.65Zm9.6.12a3.2,3.2,0,0,0,.592-.045,1.964,1.964,0,0,0,.458-.15h0V11.66a1.555,1.555,0,0,1-.84.255,1.031,1.031,0,0,1-.825-.33,1.479,1.479,0,0,1-.24-.93h0V6.485h1.86V5.33h-1.86V3.17h-1.275V5.33H156.5V6.485h1.335V10.97a2.469,2.469,0,0,0,.15.915,1.849,1.849,0,0,0,.45.66,1.97,1.97,0,0,0,.667.4A2.426,2.426,0,0,0,159.965,13.1Zm10.825.12a5.559,5.559,0,0,0,2.4-.517,5.42,5.42,0,0,0,1.845-1.4h0l-.93-.9a4.2,4.2,0,0,1-3.315,1.605,4.305,4.305,0,0,1-2.145-.547,4.085,4.085,0,0,1-1.553-1.545,4.524,4.524,0,0,1-.577-2.3,4.524,4.524,0,0,1,.577-2.3,4.075,4.075,0,0,1,1.553-1.544,4.306,4.306,0,0,1,2.145-.548,3.858,3.858,0,0,1,1.672.345A4,4,0,0,1,173.8,4.64h0l.915-.885a5.134,5.134,0,0,0-1.732-1.3A5.214,5.214,0,0,0,170.79,2a5.574,5.574,0,0,0-2.835.735,5.317,5.317,0,0,0-2,2.018,5.687,5.687,0,0,0-.727,2.857,5.684,5.684,0,0,0,.727,2.857,5.31,5.31,0,0,0,2,2.018A5.574,5.574,0,0,0,170.79,13.22Zm6.845-.24V2.24H176.36V12.98Zm4.565.24a2.941,2.941,0,0,0,1.47-.39,2.524,2.524,0,0,0,1.005-.96h.06v1.11h1.215V5.33h-1.275V9.65a2.582,2.582,0,0,1-.277,1.17,2.355,2.355,0,0,1-.781.9,1.975,1.975,0,0,1-1.147.345,1.774,1.774,0,0,1-1.335-.51,2.235,2.235,0,0,1-.495-1.605h0V5.33h-1.275v4.815a3.271,3.271,0,0,0,.727,2.265A2.687,2.687,0,0,0,182.2,13.22Zm9.425,0a3.439,3.439,0,0,0,1.86-.525,3.659,3.659,0,0,0,1.32-1.447,4.471,4.471,0,0,0,.48-2.093,4.478,4.478,0,0,0-.48-2.085,3.648,3.648,0,0,0-1.32-1.455,3.439,3.439,0,0,0-1.86-.525,3.1,3.1,0,0,0-1.568.4,2.752,2.752,0,0,0-1.042.982h-.06l.06-1.065V2.24H187.74V12.98h1.215V11.855h.06a2.808,2.808,0,0,0,1.042.968A3.124,3.124,0,0,0,191.625,13.22Zm-.15-1.155a2.336,2.336,0,0,1-1.245-.36,2.557,2.557,0,0,1-.93-1.02,3.256,3.256,0,0,1-.345-1.53,3.256,3.256,0,0,1,.345-1.53,2.557,2.557,0,0,1,.93-1.02,2.333,2.333,0,0,1,2.49,0,2.6,2.6,0,0,1,.938,1.028,3.209,3.209,0,0,1,.352,1.522,3.206,3.206,0,0,1-.352,1.522,2.594,2.594,0,0,1-.938,1.028A2.336,2.336,0,0,1,191.475,12.065Zm7.79,1.155a3.971,3.971,0,0,0,1.53-.285,2.583,2.583,0,0,0,1.1-.817,1.991,1.991,0,0,0,.4-1.238,1.856,1.856,0,0,0-.57-1.373,3.645,3.645,0,0,0-1.7-.847h0l-1.11-.285a2.628,2.628,0,0,1-.99-.427.833.833,0,0,1-.33-.683.859.859,0,0,1,.472-.742,2.045,2.045,0,0,1,1.1-.293,1.852,1.852,0,0,1,1.815,1.02h0l1.11-.51a2.456,2.456,0,0,0-1.118-1.215,3.64,3.64,0,0,0-1.792-.435,3.727,3.727,0,0,0-1.425.27,2.543,2.543,0,0,0-1.057.773,1.819,1.819,0,0,0-.4,1.162A1.812,1.812,0,0,0,196.9,8.69a3.34,3.34,0,0,0,1.5.765h0l.93.24a3.727,3.727,0,0,1,1.275.5.936.936,0,0,1-.105,1.6,2.424,2.424,0,0,1-1.23.293,2.186,2.186,0,0,1-1.238-.375,2.29,2.29,0,0,1-.847-1.065h0l-1.14.51a3.151,3.151,0,0,0,1.17,1.477A3.49,3.49,0,0,0,199.265,13.22Z"/>
    <g id="Group">
      <path id="Path" class="cls-2" d="M7.431,8,12.7,4.912a2.655,2.655,0,0,0,.949-3.6A2.573,2.573,0,0,0,10.109.353L1,5.689Z"/>
    </g>
    <g id="Group-2-2" data-name="Group">
      <path id="Path-2" data-name="Path" class="cls-3" d="M11.457,15a2.549,2.549,0,0,0,2.2-1.242,2.452,2.452,0,0,0-.929-3.391L3.81,5.333a2.571,2.571,0,0,0-3.469.909A2.452,2.452,0,0,0,1.27,9.633l8.92,5.034A2.571,2.571,0,0,0,11.457,15"/>
    </g>
    <g id="Group-3" data-name="Group">
      <path id="Path-3" data-name="Path" class="cls-4" d="M19.6,15a2.561,2.561,0,0,0,1.294-.351L30,9.344,23.651,7,18.3,10.117a2.63,2.63,0,0,0-.949,3.574A2.587,2.587,0,0,0,19.6,15"/>
    </g>
    <g id="Group-4" data-name="Group">
      <path id="Path-4" data-name="Path" class="cls-5" d="M28.457,10a2.549,2.549,0,0,0,2.2-1.242,2.452,2.452,0,0,0-.929-3.391L20.81.333a2.57,2.57,0,0,0-3.469.909,2.452,2.452,0,0,0,.929,3.391l8.92,5.034A2.568,2.568,0,0,0,28.457,10"/>
    </g>
  </g>
</svg>
